<?xml version="1.0" standalone="no"?><!-- Generator: Gravit.io --><svg xmlns="http://www.w3.org/2000/svg" xmlns:xlink="http://www.w3.org/1999/xlink" style="isolation:isolate" viewBox="0 0 64 64" width="64" height="64"><defs><clipPath id="_clipPath_JVaeDtlEIrdqWzR1lVQ0GmzDDiLrWI6R"><rect width="64" height="64"/></clipPath></defs><g clip-path="url(#_clipPath_JVaeDtlEIrdqWzR1lVQ0GmzDDiLrWI6R)"><g><g><g><g><g><g><g><linearGradient id="_lgradient_0" x1="0.5" y1="1" x2="0.5000000000000003" y2="0" gradientTransform="matrix(-19.955,0,0,-7.495,41.979,18.263)" gradientUnits="userSpaceOnUse"><stop offset="0%" stop-opacity="1" style="stop-color:rgb(149,233,206)"/><stop offset="99.56521739130434%" stop-opacity="1" style="stop-color:rgb(255,255,255)"/><stop offset="100%" stop-opacity="1" style="stop-color:rgb(0,0,0)"/></linearGradient><path d=" M 22.025 13.266 C 22.025 11.887 23.812 10.768 26.016 10.768 L 37.988 10.768 C 40.193 10.768 41.979 11.887 41.979 13.266 L 41.979 15.765 C 41.979 17.144 40.193 18.263 37.988 18.263 L 26.016 18.263 C 23.812 18.263 22.025 17.144 22.025 15.765 L 22.025 13.266 Z  M 26.016 15.765 L 37.988 15.765 L 37.988 13.266 L 26.016 13.266 L 26.016 15.765 Z " fill="url(#_lgradient_0)" vector-effect="non-scaling-stroke" stroke-width="1" stroke="rgb(255,255,255)" stroke-linejoin="miter" stroke-linecap="butt" stroke-miterlimit="4"/><linearGradient id="_lgradient_1" x1="0.5" y1="1" x2="0.5000000000000003" y2="0" gradientTransform="matrix(-19.955,0,0,-7.495,41.979,8.27)" gradientUnits="userSpaceOnUse"><stop offset="0%" stop-opacity="1" style="stop-color:rgb(149,233,206)"/><stop offset="99.56521739130434%" stop-opacity="1" style="stop-color:rgb(255,255,255)"/><stop offset="100%" stop-opacity="1" style="stop-color:rgb(0,0,0)"/></linearGradient><path d=" M 22.025 3.273 C 22.025 1.894 23.812 0.775 26.016 0.775 L 37.988 0.775 C 40.193 0.775 41.979 1.894 41.979 3.273 L 41.979 5.772 C 41.979 7.151 40.193 8.27 37.988 8.27 L 26.016 8.27 C 23.812 8.27 22.025 7.151 22.025 5.772 L 22.025 3.273 Z  M 26.016 5.772 L 37.988 5.772 L 37.988 3.273 L 26.016 3.273 L 26.016 5.772 Z " fill="url(#_lgradient_1)" vector-effect="non-scaling-stroke" stroke-width="1" stroke="rgb(255,255,255)" stroke-linejoin="miter" stroke-linecap="butt" stroke-miterlimit="4"/><g><linearGradient id="_lgradient_2" x1="0.4999463581926663" y1="-0.00994227272854184" x2="0.49994635819266603" y2="1.4951902897827827" gradientTransform="matrix(-39.909,0,0,-42.464,51.954,63.225)" gradientUnits="userSpaceOnUse"><stop offset="0%" stop-opacity="1" style="stop-color:rgb(144,232,204)"/><stop offset="73.91304347826086%" stop-opacity="1" style="stop-color:rgb(255,255,255)"/></linearGradient><path d=" M 26.016 20.761 L 37.988 20.761 C 40.189 20.761 41.979 21.895 41.979 23.289 L 41.979 43.245 L 48 43.245 C 49.435 43.245 50.752 43.741 51.428 44.533 C 52.168 45.367 52.125 46.387 51.316 47.196 L 47.32 51.181 L 36.965 61.505 C 35.895 62.578 34.015 63.228 31.994 63.225 C 29.979 63.228 28.103 62.58 27.035 61.51 L 12.682 47.192 C 11.876 46.389 11.832 45.37 12.57 44.533 C 13.283 43.726 14.566 43.245 16.001 43.245 L 22.025 43.245 L 22.025 23.289 C 22.025 21.895 23.815 20.761 26.016 20.761 Z  M 39.984 45.743 L 37.988 45.743 L 37.988 37.475 L 37.988 23.289 L 26.016 23.259 L 26.016 45.743 L 16.066 45.743 C 16.045 45.77 16.019 45.818 16.066 45.865 L 30.418 60.182 C 30.757 60.524 31.355 60.731 31.998 60.728 C 32.645 60.731 33.248 60.522 33.589 60.178 L 43.421 50.372 L 47.938 45.868 C 48.004 45.802 47.93 45.733 47.918 45.726 L 39.984 45.743 Z " fill="url(#_lgradient_2)"/><path d=" M 30.007 47.024 L 30.007 25.758 L 33.998 25.758 L 33.998 47.024 C 33.998 47.713 34.892 48.242 35.993 48.242 L 38.268 48.242 C 38.626 48.245 38.954 48.367 39.131 48.562 C 39.308 48.756 39.309 48.995 39.132 49.19 L 33.728 55.118 C 33.376 55.506 32.717 55.746 32.004 55.747 C 31.29 55.748 30.631 55.509 30.276 55.122 L 24.872 49.188 C 24.697 48.994 24.697 48.756 24.875 48.561 C 25.052 48.367 25.379 48.246 25.736 48.242 L 28.011 48.242 C 29.113 48.242 30.007 47.713 30.007 47.024 Z " fill="rgb(149,233,206)"/></g></g></g></g></g></g></g></g></g></svg>