<?xml version="1.0" standalone="no"?><!-- Generator: Gravit.io --><svg xmlns="http://www.w3.org/2000/svg" xmlns:xlink="http://www.w3.org/1999/xlink" style="isolation:isolate" viewBox="0 0 64 64" width="64" height="64"><defs><clipPath id="_clipPath_0slmxKChffLg4tv5mQSMA8yQYiQGdEG8"><rect width="64" height="64"/></clipPath></defs><g clip-path="url(#_clipPath_0slmxKChffLg4tv5mQSMA8yQYiQGdEG8)"><path d=" M 57.293 43.732 L 52.374 43.732 C 51.695 43.732 51.144 44.283 51.144 44.962 L 51.144 53.571 L 58.523 53.571 L 58.523 44.962 C 58.523 44.283 57.973 43.732 57.293 43.732 Z " fill="rgb(144,232,204)"/><rect x="26.549" y="42.503" width="2.46" height="4.919" transform="matrix(1,0,0,1,0,0)" fill="rgb(144,232,204)"/><rect x="19.17" y="28.975" width="14.757" height="2.46" transform="matrix(1,0,0,1,0,0)" fill="rgb(144,232,204)"/><path d=" M 61.54 32 L 61.54 29.54 C 61.54 28.184 60.437 27.081 59.081 27.081 L 44.323 27.081 L 44.323 24.621 C 45.68 24.621 46.783 23.518 46.783 22.162 L 46.783 19.702 C 46.783 18.346 45.68 17.243 44.323 17.243 L 43.854 17.243 L 39.614 8.763 C 39.199 7.928 38.346 7.401 37.413 7.404 L 9.421 7.404 C 8.482 7.404 7.64 7.926 7.218 8.764 L 2.98 17.243 L 2.51 17.243 C 1.154 17.243 0.051 18.346 0.051 19.702 L 0.051 22.162 C 0.051 23.518 1.154 24.621 2.51 24.621 L 2.51 54.136 C 2.51 55.493 3.614 56.596 4.97 56.596 L 59.081 56.596 C 60.437 56.596 61.54 55.493 61.54 54.136 L 61.54 39.379 C 62.897 39.379 64 38.276 64 36.919 L 64 34.46 C 64 33.103 62.897 32 61.54 32 Z  M 59.081 29.54 L 59.081 32 L 44.323 32 L 44.323 29.54 L 59.081 29.54 Z  M 9.421 9.864 L 37.413 9.864 L 41.104 17.243 L 5.73 17.243 L 9.421 9.864 Z  M 2.51 19.702 L 44.323 19.702 L 44.323 22.162 L 2.51 22.162 L 2.51 19.702 Z  M 41.864 24.621 L 41.864 44.298 L 36.945 44.298 L 36.945 46.757 L 41.864 46.757 L 41.864 49.217 L 30.796 49.217 L 30.796 38.149 C 30.796 36.115 29.14 34.46 27.106 34.46 L 19.728 34.46 C 17.693 34.46 16.038 36.115 16.038 38.149 L 16.038 49.217 L 4.97 49.217 L 4.97 46.757 L 9.889 46.757 L 9.889 44.298 L 4.97 44.298 L 4.97 24.621 L 41.864 24.621 Z  M 4.97 54.136 L 4.97 51.677 L 16.038 51.677 L 16.038 54.136 L 4.97 54.136 Z  M 18.498 54.136 L 18.498 38.149 C 18.498 37.47 19.048 36.919 19.728 36.919 L 27.106 36.919 C 27.785 36.919 28.336 37.47 28.336 38.149 L 28.336 54.136 L 18.498 54.136 Z  M 30.796 54.136 L 30.796 51.677 L 41.864 51.677 L 41.864 54.136 L 30.796 54.136 Z  M 59.081 54.136 L 44.323 54.136 L 44.323 39.379 L 59.081 39.379 L 59.081 54.136 Z  M 61.54 36.919 L 44.323 36.919 L 44.323 34.46 L 61.54 34.46 L 61.54 36.919 Z " fill="rgb(144,232,204)"/></g></svg>