<?xml version="1.0" standalone="no"?><!-- Generator: Gravit.io --><svg xmlns="http://www.w3.org/2000/svg" xmlns:xlink="http://www.w3.org/1999/xlink" style="isolation:isolate" viewBox="0 0 64 64" width="64" height="64"><defs><clipPath id="_clipPath_GCOi6KUyGMTyK3ojdomoX3BlqeCOKD8E"><rect width="64" height="64"/></clipPath></defs><g clip-path="url(#_clipPath_GCOi6KUyGMTyK3ojdomoX3BlqeCOKD8E)"><path d=" M 38.908 34.366 L 45.817 34.366 C 47.087 34.366 48.12 33.333 48.12 32.063 L 48.12 25.155 C 48.12 23.885 47.087 22.852 45.817 22.852 L 38.908 22.852 C 37.638 22.852 36.606 23.885 36.606 25.155 L 36.606 32.063 C 36.606 33.333 37.638 34.366 38.908 34.366 Z  M 38.908 32.063 L 38.908 29.761 L 45.817 29.761 L 45.817 32.063 L 38.908 32.063 Z  M 45.817 25.155 L 45.818 27.458 L 38.908 27.458 L 38.908 25.155 L 45.817 25.155 Z " fill="rgb(115,227,192)"/><path d=" M 18.183 34.366 L 25.092 34.366 C 26.362 34.366 27.394 33.333 27.394 32.063 L 27.394 25.155 C 27.394 23.885 26.362 22.852 25.092 22.852 L 18.183 22.852 C 16.913 22.852 15.88 23.885 15.88 25.155 L 15.88 32.063 C 15.88 33.333 16.913 34.366 18.183 34.366 Z  M 18.183 32.063 L 18.183 29.761 L 25.092 29.761 L 25.092 32.063 L 18.183 32.063 Z  M 25.092 25.155 L 25.093 27.458 L 18.183 27.458 L 18.183 25.155 L 25.092 25.155 Z " fill="rgb(115,227,192)"/><path d=" M 59.634 15.944 L 59.634 13.641 C 59.634 12.371 58.601 11.338 57.331 11.338 L 57.078 11.338 L 55.429 4.745 C 55.046 3.206 53.663 2.125 52.077 2.127 L 11.923 2.127 C 10.336 2.125 8.953 3.205 8.57 4.745 L 6.922 11.338 L 6.669 11.338 C 5.399 11.338 4.366 12.371 4.366 13.641 L 4.366 15.944 C 4.366 17.214 5.399 18.247 6.669 18.247 L 6.669 59.697 L 4.366 59.697 L 4.366 62 L 59.634 62 L 59.634 59.697 L 57.331 59.697 L 57.331 18.247 C 58.601 18.247 59.634 17.214 59.634 15.944 Z  M 52.077 4.43 C 52.608 4.43 53.067 4.79 53.197 5.304 L 54.706 11.338 L 50.422 11.338 L 50.422 4.43 L 52.077 4.43 Z  M 48.12 11.338 L 43.514 11.338 L 43.514 4.43 L 48.12 4.43 L 48.12 11.338 Z  M 22.789 11.338 L 22.789 4.43 L 27.394 4.43 L 27.394 11.338 L 22.789 11.338 Z  M 29.697 4.43 L 34.303 4.43 L 34.303 11.338 L 29.697 11.338 L 29.697 4.43 Z  M 36.606 4.43 L 41.211 4.43 L 41.211 11.338 L 36.606 11.338 L 36.606 4.43 Z  M 20.486 4.43 L 20.486 11.338 L 15.88 11.338 L 15.88 4.43 L 20.486 4.43 Z  M 10.804 5.304 C 10.933 4.79 11.393 4.43 11.923 4.43 L 13.578 4.43 L 13.578 11.338 L 9.294 11.338 L 10.804 5.304 Z  M 8.972 59.697 L 8.972 57.394 L 25.092 57.394 L 25.092 59.697 L 8.972 59.697 Z  M 27.394 59.697 L 27.394 45.88 L 36.606 45.88 L 36.606 59.697 L 27.394 59.697 Z  M 25.092 43.578 L 25.092 42.426 C 25.092 41.79 25.607 41.275 26.243 41.275 L 37.757 41.275 C 38.393 41.275 38.908 41.79 38.908 42.426 L 38.908 43.578 L 25.092 43.578 Z  M 38.908 59.697 L 38.908 57.394 L 55.028 57.394 L 55.028 59.697 L 38.908 59.697 Z  M 55.028 50.486 L 46.968 50.486 L 46.968 52.789 L 55.028 52.789 L 55.028 55.092 L 38.908 55.092 L 38.908 45.88 L 41.211 45.88 L 41.211 42.426 C 41.211 40.522 39.661 38.972 37.757 38.972 L 26.243 38.972 C 24.339 38.972 22.789 40.522 22.789 42.426 L 22.789 45.88 L 25.092 45.88 L 25.092 55.092 L 8.972 55.092 L 8.972 52.789 L 17.032 52.789 L 17.032 50.486 L 8.972 50.486 L 8.972 18.247 L 55.028 18.247 L 55.028 50.486 Z  M 6.669 15.944 L 6.669 13.641 L 57.331 13.641 L 57.333 15.944 L 6.669 15.944 Z " fill="rgb(115,227,192)"/><rect x="32" y="50.486" width="2.303" height="4.606" transform="matrix(1,0,0,1,0,0)" fill="rgb(115,227,192)"/><rect x="38.908" y="57.394" width="16.12" height="2.303" transform="matrix(1,0,0,1,0,0)" fill="rgb(115,227,192)"/><rect x="8.972" y="57.394" width="16.12" height="2.303" transform="matrix(1,0,0,1,0,0)" fill="rgb(115,227,192)"/></g></svg>