<?xml version="1.0" standalone="no"?><!-- Generator: Gravit.io --><svg xmlns="http://www.w3.org/2000/svg" xmlns:xlink="http://www.w3.org/1999/xlink" style="isolation:isolate" viewBox="0 0 64 64" width="64" height="64"><defs><clipPath id="_clipPath_QMcdEsBkpHZwgtea4DLkiKkItBQRFFk2"><rect width="64" height="64"/></clipPath></defs><g clip-path="url(#_clipPath_QMcdEsBkpHZwgtea4DLkiKkItBQRFFk2)"><rect x="35.65" y="53.899" width="4.866" height="2.433" transform="matrix(1,0,0,1,0,0)" fill="rgb(144,232,204)"/><rect x="5.235" y="53.899" width="6.083" height="2.433" transform="matrix(1,0,0,1,0,0)" fill="rgb(144,232,204)"/><rect x="41.733" y="7.668" width="17.032" height="2.433" transform="matrix(1,0,0,1,0,0)" fill="rgb(144,232,204)"/><path d=" M 61.106 56.332 L 57.647 12.525 C 59.613 12.471 61.199 10.875 61.199 8.91 L 61.199 5.235 L 39.3 5.235 L 39.3 8.91 C 39.304 10.88 40.881 12.487 42.851 12.527 L 41.89 24.7 L 36.866 24.7 L 36.866 14.968 L 32.131 14.968 C 30.866 14.968 29.709 15.609 29.036 16.683 L 24.025 24.7 L 21.051 24.7 L 21.051 14.968 L 16.316 14.968 C 15.05 14.968 13.893 15.609 13.22 16.683 L 8.209 24.7 L 6.451 24.7 C 4.439 24.7 2.801 26.338 2.801 28.35 L 2.801 56.332 L 0.368 56.332 L 0.368 58.765 L 63.632 58.765 L 63.632 56.332 L 61.106 56.332 Z  M 42.924 10.101 C 42.266 10.1 41.734 9.568 41.733 8.91 L 41.733 7.668 L 58.765 7.668 L 58.765 8.91 C 58.765 9.556 58.208 10.101 57.549 10.101 L 42.924 10.101 Z  M 6.451 27.134 L 9.56 27.134 L 15.284 17.974 C 15.505 17.617 15.895 17.4 16.316 17.401 L 18.617 17.401 L 18.617 27.134 L 25.376 27.134 L 31.1 17.974 C 31.321 17.617 31.711 17.4 32.131 17.401 L 34.433 17.401 L 34.433 27.134 L 41.698 27.134 L 39.777 51.466 L 35.65 51.466 L 35.65 48.995 C 35.649 47.672 34.577 46.6 33.254 46.599 L 13.751 46.599 C 12.409 46.599 11.318 47.674 11.318 48.995 L 11.318 51.466 L 5.235 51.466 L 5.235 28.35 C 5.235 27.678 5.779 27.134 6.451 27.134 Z  M 5.235 56.332 L 5.235 53.899 L 11.318 53.899 L 11.318 56.332 L 5.235 56.332 Z  M 13.751 56.332 L 13.751 49.032 L 33.217 49.032 L 33.217 56.332 L 13.751 56.332 Z  M 35.65 56.332 L 35.65 53.899 L 39.584 53.899 L 39.392 56.332 L 35.65 56.332 Z  M 41.833 56.332 L 45.29 12.534 L 55.208 12.534 L 56.456 28.35 L 50.249 28.35 L 50.249 30.783 L 56.648 30.783 L 57.033 35.65 L 49.032 35.65 L 49.032 38.083 L 57.225 38.083 L 57.61 42.949 L 47.816 42.949 L 47.816 45.383 L 57.802 45.383 L 58.666 56.332 L 41.833 56.332 Z " fill="rgb(144,232,204)"/><path d=" M 13.751 42.949 L 18.617 42.949 C 19.959 42.949 21.051 41.858 21.051 40.516 L 21.051 33.217 C 21.051 31.875 19.959 30.783 18.617 30.783 L 13.751 30.783 C 12.409 30.783 11.318 31.875 11.318 33.217 L 11.318 40.516 C 11.318 41.858 12.409 42.949 13.751 42.949 Z  M 13.751 40.516 L 13.751 38.083 L 18.617 38.083 L 18.617 40.516 L 13.751 40.516 Z  M 18.617 33.217 L 18.619 35.65 L 13.751 35.65 L 13.751 33.217 L 18.617 33.217 Z " fill="rgb(144,232,204)"/><path d=" M 28.35 42.949 L 33.217 42.949 C 34.559 42.949 35.65 41.858 35.65 40.516 L 35.65 33.217 C 35.65 31.875 34.559 30.783 33.217 30.783 L 28.35 30.783 C 27.008 30.783 25.917 31.875 25.917 33.217 L 25.917 40.516 C 25.917 41.858 27.008 42.949 28.35 42.949 Z  M 28.35 40.516 L 28.35 38.083 L 33.217 38.083 L 33.217 40.516 L 28.35 40.516 Z  M 33.217 33.217 L 33.218 35.65 L 28.35 35.65 L 28.35 33.217 L 33.217 33.217 Z " fill="rgb(144,232,204)"/></g></svg>