<?xml version="1.0" encoding="utf-8"?>
<!-- Generator: Adobe Illustrator 22.0.0, SVG Export Plug-In . SVG Version: 6.00 Build 0)  -->
<svg version="1.1" id="Calque_1" xmlns="http://www.w3.org/2000/svg" xmlns:xlink="http://www.w3.org/1999/xlink" x="0px" y="0px"
	 viewBox="0 0 200 400" style="enable-background:new 0 0 200 400;" xml:space="preserve">
<style type="text/css">
	.st0{fill:#717171;}
	.st1{font-family:'ArialMT';}
	.st2{font-size:24px;}
	.st3{fill:none;stroke:#717171;stroke-width:2;stroke-miterlimit:10;}
</style>
<text transform="matrix(1 0 0 1 59.9476 120.6842)" class="st0 st1 st2">Accueil</text>
<text transform="matrix(1 0 0 1 59.9476 239.7368)" class="st0 st1 st2">L’équipe</text>
<text transform="matrix(1 0 0 1 59.9475 179.614)" class="st0 st1 st2">Présentation</text>
<text transform="matrix(1 0 0 1 59.9475 300.4211)" class="st0 st1 st2">A propos</text>
<path class="st3" d="M30,120.7L30,120.7c-2.8,0-5-2.3-5-5v0c0-2.7,2.2-5,5-5h0c2.7,0,5,2.3,5,5v0C35,118.4,32.8,120.7,30,120.7z"/>
<path class="st3" d="M30,178.8L30,178.8c-2.8,0-5-2.3-5-5l0,0c0-2.8,2.2-5,5-5h0c2.7,0,5,2.3,5,5l0,0C35,176.6,32.8,178.8,30,178.8z
	"/>
<path class="st3" d="M30,239.9L30,239.9c-2.8,0-5-2.3-5-5v0c0-2.7,2.2-5,5-5h0c2.7,0,5,2.3,5,5v0C35,237.7,32.8,239.9,30,239.9z"/>
<path class="st3" d="M30,301L30,301c-2.8,0-5-2.3-5-5l0,0c0-2.8,2.2-5,5-5h0c2.7,0,5,2.3,5,5l0,0C35,298.8,32.8,301,30,301z"/>
<line class="st3" x1="30" y1="120.7" x2="30" y2="168.8"/>
<path class="st0" d="M30,118.2L30,118.2c-1.4,0-2.5-1.1-2.5-2.5l0,0c0-1.4,1.1-2.5,2.5-2.5h0c1.4,0,2.5,1.1,2.5,2.5l0,0
	C32.5,117.1,31.4,118.2,30,118.2z"/>
<path class="st0" d="M30,176.3L30,176.3c-1.4,0-2.5-1.1-2.5-2.5l0,0c0-1.4,1.1-2.5,2.5-2.5h0c1.4,0,2.5,1.1,2.5,2.5l0,0
	C32.5,175.2,31.4,176.3,30,176.3z"/>
<path class="st0" d="M30,237.4L30,237.4c-1.4,0-2.5-1.1-2.5-2.5l0,0c0-1.4,1.1-2.5,2.5-2.5h0c1.4,0,2.5,1.1,2.5,2.5l0,0
	C32.5,236.3,31.4,237.4,30,237.4z"/>
<path class="st0" d="M30,298.5L30,298.5c-1.4,0-2.5-1.1-2.5-2.5l0,0c0-1.4,1.1-2.5,2.5-2.5h0c1.4,0,2.5,1.1,2.5,2.5l0,0
	C32.5,297.4,31.4,298.5,30,298.5z"/>
<line class="st3" x1="30" y1="178.8" x2="30" y2="229.9"/>
<line class="st3" x1="30" y1="239.9" x2="30" y2="291"/>
</svg>
